<?xml version="1.0" encoding="iso-8859-1"?>
<!-- Generator: Adobe Illustrator 19.0.0, SVG Export Plug-In . SVG Version: 6.00 Build 0)  -->
<svg version="1.1" id="Capa_1" xmlns="http://www.w3.org/2000/svg" xmlns:xlink="http://www.w3.org/1999/xlink" x="0px" y="0px"
	 viewBox="0 0 512 512" style="enable-background:new 0 0 512 512;" xml:space="preserve">
<g>
	<g>
		<path d="M437.02,74.98C388.668,26.629,324.38,0,256,0C187.62,0,123.332,26.629,74.98,74.98S0,187.62,0,256
			c0,68.38,26.629,132.668,74.98,181.02S187.619,512,256,512s132.668-26.629,181.02-74.98S512,324.381,512,256
			S485.371,123.332,437.02,74.98z M256,481.28C131.78,481.28,30.72,380.22,30.72,256S131.78,30.72,256,30.72
			S481.28,131.78,481.28,256S380.22,481.28,256,481.28z"/>
	</g>
</g>
<g>
	<g>
		<path d="M256,90.026c-91.519,0-165.974,74.455-165.974,165.974S164.481,421.974,256,421.974
			c91.518,0,165.974-74.455,165.974-165.974S347.518,90.026,256,90.026z M256,391.254c-74.58,0-135.254-60.675-135.254-135.254
			S181.421,120.746,256,120.746c74.579,0,135.254,60.675,135.254,135.254S330.579,391.254,256,391.254z"/>
	</g>
</g>
<g>
</g>
<g>
</g>
<g>
</g>
<g>
</g>
<g>
</g>
<g>
</g>
<g>
</g>
<g>
</g>
<g>
</g>
<g>
</g>
<g>
</g>
<g>
</g>
<g>
</g>
<g>
</g>
<g>
</g>
</svg>
